<svg xmlns="http://www.w3.org/2000/svg" width="999" height="1024" viewBox="0 0 999 1024"><path d="M930.273 696.738c-62.684-74.527-148.027-128.184-245.341-150.405l-3.031-.582c-26.469-7.849-48.31-15.986-69.473-25.371l3.645 1.443c3.553-4.598 7.419-9.3 10.449-13.688l1.358-1.776c39.596-41.025 67.527-93.553 78.298-152.089l.279-1.825c6.134-25.601 9.651-54.995 9.651-85.209 0-76.482-22.537-147.7-61.333-207.375l.899 1.476C617.078 23.182 563.993-.387 505.402-.387c-5.105 0-10.168.179-15.184.531l.675-.038c-4.484-.334-9.713-.524-14.986-.524-57.951 0-110.532 22.99-149.121 60.348l.058-.056c-37.423 56.702-59.701 126.267-59.701 201.034 0 28.557 3.25 56.356 9.4 83.045l-.481-2.48.836 11.494c12.604 62.338 41.111 116.628 81.097 160.219l-.222-.245c3.239 4.284 6.896 8.986 10.449 13.688-18.286 8.673-47.229 18.913-69.068 26.749-92.458 23.494-171.651 71.06-233.138 135.639l-.187.198C24.098 758.04-.599 841.219-.599 930.165c0 20.85 1.357 41.383 3.988 61.515l-.253-2.371 4.389 34.273h968.934l9.195-26.227c8.346-28.257 13.148-60.723 13.148-94.31 0-77.76-25.739-149.507-69.163-207.188l.635.881z"/></svg>