<svg xmlns="http://www.w3.org/2000/svg" width="38" height="25" viewBox="0 0 38 25"><defs><clipPath id="a"><path fill="none" d="M0 0h27.167v8.768H0z"/></clipPath><style>.e{fill:#0f4596}</style></defs><g transform="translate(-1113 -1077)"><rect width="38" height="25" rx="3" transform="translate(1113 1077)" fill="#fff"/><g clip-path="url(#a)" transform="translate(1117.833 1085)"><path d="M3.637.149l.65.19.33.536.173.869.259 1.306c.014.107.024.214.043.32.075.425.154.85.231 1.275-.039-.081-.079-.162-.116-.244a6.674 6.674 0 00-2.844-3.106l-.189-.1L0 .322.054.169.215.153H3.637" fill="#f2ae16"/><path class="e" d="M2.363 1.295a6.674 6.674 0 012.844 3.106c.037.082.077.163.116.244l.241 1.131.081.008.611-1.645.777-2.088.413-1.12.22-.589.155-.187h1.958l.278.027-.212.587-.075.193-.057.131a.041.041 0 00-.024.045l-.285.717-.459 1.113-.848 2.092-.046.108-.017.052-.458 1.094-.03.1-.489 1.2-.066.165.006-.008-.051.119v-.006l-.032.057-.2.486-.1.207-.316.031-.875.009H4.347l-.116-.182-.037-.169-.055-.185-.225-.845-.19-.76c-.12-.46-.237-.921-.362-1.379-.014-.053-.067-.1-.1-.143l-.212-.99-.248-.975-.254-.925-.046-.168-.14-.661M18.448.018a.021.021 0 00.032.008l1.082.247.071.027.088.04.034.053-.014.1-.012.107-.005.054-.045.271-.164 1.037-.016.092c-.039.124-.1.133-.219.076a3.579 3.579 0 00-1.978-.319 1.509 1.509 0 00-.629.216c-.42.263-.419.644-.029.964l.119.085h.007l.618.364 1.035.589.213.164.718 1.03.055 1.086-.34.958-.652.714-.537.338-.376.165-.058.017-.063.029-.6.158-.157.024-.171.025-.156.03h-1.3l-.87-.128-.165-.041-.049-.008-.164-.04-.054-.013-.382-.137c-.042-.084-.12-.168-.119-.252a5.223 5.223 0 01.066-.587l.016-.052.018-.115.174-.954.654.247a2.812 2.812 0 001.362.286l.107.018h.051l.324-.013.165-.023.172-.034a.839.839 0 00.794-.616v-.269l-.039-.11a1.3 1.3 0 00-.708-.6l-.328-.156-.809-.47a.034.034 0 00-.039-.025l-.114-.073.008.013-.068-.068-.041-.036-.181-.157-.109-.107-.106-.111-.429-.763-.073-.324a2.634 2.634 0 01.929-2.174L15.215.7l.817-.418.09-.037L16.3.2a6.414 6.414 0 012-.184h.145M11.951.152h1.144v.507l-.025.11-.014.1-.336 2.068-.178 1.124-.191 1.158-.024.214-.023.112-.035.25-.019.071-.026.166-.013.112-.028.158-.208 1.254-.089.569-.02.079-.01.11-.008.057-.082.291h-1.99c-.128.007-.192-.049-.176-.182l.083-.539.129-.768.055-.324.271-1.684.135-.868.107-.974.072-.11.029-.167.17-1.087.01-.08.029-.136.015-.11.03-.111.091-.654V.779l.093-.491.006-.073c.225-.02.449-.041.674-.058.115-.008.23-.007.345-.01"/><path d="M23.91.155h1.085l.377.024.2.832.2.968.461 2.157.222 1.088.23 1.088.388 1.858.074.312.019.156h-2.058l-.028-.113a.036.036 0 00-.014-.046c-.061-.317-.115-.636-.187-.951-.014-.06-.1-.15-.148-.15-.6 0-1.2.009-1.8.017h-.108a6.106 6.106 0 00-.621-.013.293.293 0 00-.211.146c-.118.292-.212.594-.315.892a.292.292 0 01-.356.236c-.224-.016-.45.007-.675.013h-1.136l-.221-.017-.046-.185a.151.151 0 00.009-.036l.367-.653.159-.385.013-.01v-.016l.037-.081.185-.453.137-.31.066-.163.06-.143.121-.284-.008.008.036-.067.223-.546.065-.15.434-1.042.464-1.089.13-.326.446-1.066.326-.771-.008-.013.006.013.031-.066.343-.488zm.33 4.349l-.071-.37-.023-.091a.025.025 0 000-.026l-.277-1.445-.073-.005-.7 1.949-.218.6-.13.348.019.156h1.576c.042-.039.122-.081.119-.117a1.334 1.334 0 00-.075-.281l-.045-.216-.016-.107-.04-.167-.051-.229" fill="#0e4596"/></g></g></svg>