<svg xmlns="http://www.w3.org/2000/svg" width="38.741" height="25.459" viewBox="0 0 38.741 25.459"><defs><clipPath id="a"><path fill="none" d="M0 0h25.741v12.459H0z"/></clipPath><style>.d{fill:#0084c4}</style></defs><g transform="translate(-1112.543 -1077)"><rect width="38.741" height="25.459" rx="3" transform="translate(1112.543 1077)" fill="#fff"/><g clip-path="url(#a)" transform="translate(1118.543 1083)"><path class="d" d="M10.243 6.564h3.043c.215 0 .212 0 .2.207a6.106 6.106 0 01-.334 1.729A5.505 5.505 0 019.9 11.892a7.483 7.483 0 01-2.06.505 9.665 9.665 0 01-1.659.045 7.1 7.1 0 01-3.924-1.319A5.457 5.457 0 01.2 7.964 7.16 7.16 0 010 5.923a6.144 6.144 0 011.089-3.385A5.739 5.739 0 014.072.4 8.073 8.073 0 016.109.022 8.469 8.469 0 019.7.5a5.539 5.539 0 013.682 4.39c.055.291.074.589.113.883.009.07-.015.1-.085.1H7.167c-.188 0-.188 0-.188.189 0 .124.007.249 0 .373-.007.108.036.131.136.131h3.13zM18.521 6.569c1.337 0 2.675-.005 4.012 0a4.062 4.062 0 011.418.19 2.607 2.607 0 011.73 2.04 2.674 2.674 0 01-.562 2.293 2.418 2.418 0 01-1.722.949c-.6.049-1.2.066-1.8.068-2.389.007-4.778 0-7.167 0-.221 0-.221 0-.221-.222V6.732c0-.17 0-.171.169-.171h4.136zM18.663 5.873h-4.26c-.187 0-.187 0-.187-.191V.516c0-.163 0-.163.159-.163h8.209a3.721 3.721 0 011.486.23 2.643 2.643 0 011.6 1.952 2.755 2.755 0 01-1.4 3.007 2.415 2.415 0 01-1.07.281c-1.514.03-3.029.044-4.543.063v-.018"/></g></g></svg>