<svg xmlns="http://www.w3.org/2000/svg" width="38" height="25" viewBox="0 0 38 25"><defs><clipPath id="a"><path fill="none" d="M0 0h22v15H0z"/></clipPath></defs><g transform="translate(-1113 -1077)"><rect width="38" height="25" rx="3" transform="translate(1113 1077)" fill="#fff"/><g transform="translate(1121 1082)" clip-path="url(#a)"><path d="M14.883.024a7.251 7.251 0 00-3.8 1.067 7.287 7.287 0 010 12.436 7.286 7.286 0 103.8-13.503" fill="#ef9e00"/><path d="M7.6 7.309a7.281 7.281 0 013.487-6.218 7.285 7.285 0 100 12.436A7.281 7.281 0 017.6 7.309" fill="#e00000"/><path d="M14.57 7.31a7.281 7.281 0 00-3.487-6.218 7.287 7.287 0 000 12.436A7.281 7.281 0 0014.57 7.31" fill="#f45d00"/></g></g></svg>