<svg xmlns="http://www.w3.org/2000/svg" width="38.333" height="24.983" viewBox="0 0 38.333 24.983"><defs><clipPath id="a"><path fill="none" d="M0 0h32.333v17.983H0z"/></clipPath><style>.d{fill:#d5202c}.f{fill:#09427f}.g{fill:#f1f5f6}</style></defs><g transform="translate(-1112.667 -1077.016)"><rect width="38.333" height="24.983" rx="3" transform="translate(1112.667 1077.016)" fill="#fff"/><g clip-path="url(#a)" transform="translate(1115.667 1081.016)"><path class="d" d="M13.694 11.345c.107-.119.251-.078.377-.071a9.785 9.785 0 011.907.069 11.767 11.767 0 01-2.284 0M16.051 11.339c.172-.215.377-.17.588-.075a1.348 1.348 0 01-.588.075M12.441 11.275c.183-.106.361-.154.52.041a1.289 1.289 0 01-.52-.041M16.785 11.244c.025-.1.064-.151.15-.045l-.15.045"/><path d="M22.755 8.468a12.97 12.97 0 01-2.171-.945 3.138 3.138 0 00-1.858-.238 15.366 15.366 0 019.573-5.427 3.189 3.189 0 00-.52-.025 12.842 12.842 0 00-1.758.157 13.651 13.651 0 00-8.747 4.75.809.809 0 01-1.293.178 4.209 4.209 0 01-1.082-1.189c-.671-.982-1.315-1.981-2-2.953a4.56 4.56 0 00-2.434-1.743A24.32 24.32 0 004.123.075c-.2.092-.408.159-.594-.038L3.168.022c-.2.225-.395.02-.591-.016L2.283 0c-.187.143-.4.062-.6.068C1.226.082.772.069.318.075.199.076.031.014-.001.223A2.248 2.248 0 001.08.65a30.221 30.221 0 012.954.75 16.7 16.7 0 015.965 3.1 8.12 8.12 0 012.64 3.987c.128.451.058.609-.343.794-.245.113-.494.216-.738.329a17.47 17.47 0 00-2.725 1.442c-.108.076-.3.136-.216.33.071.172.231.147.382.123a18.717 18.717 0 013.445-.227c.183-.106.361-.154.52.041l.733.029c.107-.119.251-.078.377-.071a9.78 9.78 0 011.907.069h.074c.172-.215.377-.17.588-.075l.146-.021c.025-.1.064-.151.15-.045a5.66 5.66 0 001.778-.662 15.283 15.283 0 002.335-1.653 1.125 1.125 0 01.659-.29l.1-.013.706-.012a.066.066 0 00.1.012l.123.011c.064.035.166.053.178-.007.019-.092-.076-.123-.163-.124" fill="#d3051e"/><path class="f" d="M18.069 12.972a3.1 3.1 0 00-3.712 1.482 2.97 2.97 0 00-.373 2.471 1.691 1.691 0 002.659.683c.16-.109.222-.132.351.049a.949.949 0 001.15.16c.333-.152.249-.448.275-.748-.086.031-.13.048-.174.062-.483.153-.537.105-.428-.4.217-1.007.438-2.012.658-3.018.115-.525.1-.55-.406-.738m-.6 1.075c-.154.667-.3 1.336-.469 2a1.8 1.8 0 01-.4.774 1.157 1.157 0 01-1.263.363.982.982 0 01-.531-1 2.74 2.74 0 012.012-2.666 1.578 1.578 0 01.181-.027c.519-.035.59.048.473.555M23.195 17.152a.042.042 0 01-.055.017l-.091.038a.282.282 0 01-.224.018l-.075-.064a.391.391 0 01.02-.3l.038-.118.029-.176.036-.126.032-.168a.376.376 0 01.027-.2.376.376 0 00-.027.2c.087-.068.068-.159.057-.249a.935.935 0 01.089-.413c.01-.006.027-.013.027-.018a.3.3 0 00-.017-.055v.034-.034a5.622 5.622 0 00.2-1.763l-.058-.15a1.408 1.408 0 00-1.26-.812c-.243-.017-.488 0-.733 0l-.07.014-.277.067-.1.042a2.413 2.413 0 00-1.6 1.858c-.174.814-.352 1.628-.525 2.443-.139.655-.136.648.531.643.192 0 .294-.05.32-.248a5.12 5.12 0 01.105-.5 22.38 22.38 0 01.6-2.462 1.534 1.534 0 011.144-1.087c.67-.142 1.07.2.986.869a18.423 18.423 0 01-.464 2.19v0a.175.175 0 00-.047.188.164.164 0 00.041-.065.164.164 0 01-.041.065c-.016.347-.092.706.207.986l.1.066a1.674 1.674 0 00.745.07l.11-.041c.347-.06.363-.343.41-.606-.029-.092-.065-.175-.186-.158m-1.34-.406a.246.246 0 000-.049.246.246 0 010 .049m.9.447a.044.044 0 00.029.028.044.044 0 01-.029-.028M31.892 12.885c-.4-.073-.6.107-.789.457-.525 1-1.094 1.969-1.649 2.95-.043.075-.055.185-.191.217-.126-1.008-.247-2-.376-2.992-.084-.651-.089-.64-.767-.635-.222 0-.26.063-.228.272.231 1.5.451 3 .675 4.507.011.071 0 .148.074.2a.989.989 0 00.943-.219q1.059-1.828 2.115-3.657l.633-1.094a2.864 2.864 0 01-.441 0M26.852 12.847a2.318 2.318 0 00-2 .5 3.464 3.464 0 00-1.207 3.593l.391.576a2.455 2.455 0 002.344.307c.842-.276.733-.241.848-1.127a3.147 3.147 0 01-1.767.544.914.914 0 01-.963-.909 3.076 3.076 0 01.8-2.332 1.459 1.459 0 01.638-.42.759.759 0 011.018.354c.036.055.064.117.132.1.245-.064.606 0 .714-.194.121-.22-.124-.467-.3-.653a1.172 1.172 0 00-.643-.335M23.207 13.626l.058.15a.148.148 0 00-.058-.15"/><path class="g" d="M22.015 17.819l.1.066-.1-.066M22.86 17.955l.11-.041z"/></g></g></svg>